#!OML:ASF F:\VICON\USERDATA\INSTALL\rory3\rory3.ASF
:FULLY-SPECIFIED
:DEGREES
33
root 1.10274 17.1362 -20.9593 0.427969 4.22861 6.61841
lowerback 6.30803 -3.11216 -7.86215
upperback 1.21603 -4.62708 1.51706
thorax -1.51726 -2.28945 6.31344
lowerneck -13.3085 -1.90744 -10.7136
upperneck 21.5575 -1.34181 4.94272
head 9.07421 -0.978805 3.33401
rclavicle -1.39149e-014 3.97569e-015
rhumerus -40.9493 -14.1634 -73.9706
rradius 28.1084
rwrist 5.09145
rhand -11.4696 12.3274
rfingers 7.12502
rthumb 14.5681 -17.141
lclavicle -1.39149e-014 3.97569e-015
lhumerus -20.7088 -2.75551 83.4601
lradius 35.3932
lwrist -10.955
lhand -12.6555 21.9314
lfingers 7.12502
lthumb 13.4252 51.4788
rfemur -28.4959 -2.57797 15.1032
rtibia 15.6095
rfoot -5.99876 -11.4111
rtoes -6.35182
lfemur 12.3232 -3.84223 -30.3593
ltibia 20.9928
lfoot -15.2771 -1.75341
ltoes -12.8553
34
root 1.08489 17.1288 -20.7457 0.364948 4.29471 6.2987
lowerback 6.02416 -3.15746 -7.57842
upperback 1.30583 -4.64198 1.6163
thorax -1.27729 -2.31186 6.23385
lowerneck -13.3036 -1.91782 -10.5906
upperneck 21.474 -1.34365 4.76821
head 9.0434 -0.986203 3.25078
rclavicle 4.27387e-014 1.59028e-015
rhumerus -41.0587 -14.629 -73.6767
rradius 27.7498
rwrist 5.19867
rhand -11.5026 12.5746
rfingers 7.12502
rthumb 14.5363 -16.8962
lclavicle 4.27387e-014 1.59028e-015
lhumerus -20.5208 -2.7342 83.423
lradius 35.2298
lwrist -11.1706
lhand -12.1963 25.0178
lfingers 7.12502
lthumb 13.8678 54.5354
rfemur -28.4746 -2.56383 15.6758
rtibia 17.1892
rfoot -6.2636 -10.356
rtoes -4.98218
lfemur 12.7354 -4.05555 -29.9358
ltibia 21.6089
lfoot -14.6039 -2.05805
ltoes -13.2775
35
root 1.0637 17.1221 -20.5229 0.208417 4.34012 6.19019
lowerback 5.70999 -3.14776 -7.50863
upperback 1.46391 -4.59624 1.59581
thorax -0.952022 -2.30843 6.14121
lowerneck -13.3387 -1.97925 -10.4605
upperneck 21.5417 -1.44669 4.72702
head 9.08046 -1.02944 3.20392
rclavicle -8.56762e-014 3.97569e-015
rhumerus -41.2272 -14.8324 -73.671
rradius 27.6538
rwrist 5.20261
rhand -11.5049 11.8737
rfingers 7.12502
rthumb 14.5341 -17.5972
lclavicle -8.56762e-014 3.97569e-015
lhumerus -20.3686 -2.9195 83.3236
lradius 35.1541
lwrist -11.3861
lhand -11.9749 26.8858
lfingers 7.12502
lthumb 14.0812 56.3888
rfemur -28.2002 -2.63253 16.0759
rtibia 18.5126
rfoot -6.24168 -9.21634
rtoes -4.57546
lfemur 13.2058 -4.20189 -29.7241
ltibia 22.2507
lfoot -13.7272 -2.56436
ltoes -12.7792
36
root 1.04518 17.1347 -20.3003 0.0220657 4.32334 6.07967
lowerback 5.64534 -3.15207 -7.51953
upperback 1.4003 -4.59895 1.65957
thorax -0.975515 -2.30721 6.2125
lowerneck -13.3704 -1.96698 -10.3231
upperneck 21.9022 -1.41923 4.54021
head 9.20752 -1.03353 3.12543
rclavicle 5.55603e-014 1.59028e-015
rhumerus -41.5601 -15.1658 -73.2947
rradius 27.2581
rwrist 5.80234
rhand -11.4077 11.36
rfingers 7.12502
rthumb 14.6277 -18.1041
lclavicle 5.55603e-014 1.59028e-015
lhumerus -20.7108 -2.73937 83.3306
lradius 35.2708
lwrist -11.6002
lhand -11.7627 27.3554
lfingers 7.12502
lthumb 14.2857 56.844
rfemur -27.7928 -2.64156 16.4204
rtibia 19.4707
rfoot -5.47862 -7.94665
rtoes -4.11594
lfemur 13.6222 -4.25484 -29.5293
ltibia 22.9402
lfoot -12.4357 -3.03161
ltoes -14.5573
37
root 1.02567 17.165 -20.0801 -0.026227 4.46034 5.9783
lowerback 5.58264 -3.26407 -7.53472
upperback 1.26653 -4.74674 1.7824
thorax -1.04401 -2.37464 6.35684
lowerneck -13.4164 -1.88969 -10.4521
upperneck 22.2115 -1.26894 4.49533
head 9.31328 -0.986136 3.15471
rclavicle 6.37105e-014 -4.45278e-014
rhumerus -41.7961 -15.1218 -72.9949
rradius 26.9078
rwrist 5.98215
rhand -11.2755 12.1201
rfingers 7.12502
rthumb 14.7551 -17.3347
lclavicle 6.37105e-014 -4.45278e-014
lhumerus -21.1687 -2.33299 83.3724
lradius 35.3812
lwrist -11.9056
lhand -11.5386 27.2752
lfingers 7.12502
lthumb 14.5016 56.7484
rfemur -27.4921 -2.0709 16.3798
rtibia 20.1093
rfoot -4.20387 -7.32588
rtoes -4.71766
lfemur 13.7968 -4.31763 -29.2464
ltibia 23.7088
lfoot -11.0426 -3.69773
ltoes -16.7653
38
root 1.00521 17.1957 -19.8597 0.0183305 4.55528 5.66274
lowerback 5.38977 -3.35477 -7.29932
upperback 1.14893 -4.84126 1.93267
thorax -1.05001 -2.4189 6.37638
lowerneck -13.3448 -1.79752 -10.5491
upperneck 22.4401 -1.13082 4.50621
head 9.3693 -0.935151 3.19538
rclavicle -1.05356e-014 3.10104e-014
rhumerus -42.0475 -15.0695 -72.8253
rradius 26.7849
rwrist 6.07187
rhand -11.0523 12.5838
rfingers 7.12502
rthumb 14.9701 -16.8552
lclavicle -1.05356e-014 3.10104e-014
lhumerus -21.405 -2.10244 83.4037
lradius 35.2016
lwrist -12.0669
lhand -11.7314 26.9654
lfingers 7.12502
lthumb 14.3158 56.4519
rfemur -27.3094 -1.38839 16.4695
rtibia 20.4534
rfoot -3.03475 -6.88559
rtoes -4.29689
lfemur 13.7223 -4.40993 -28.7364
ltibia 24.6694
lfoot -9.42487 -4.33772
ltoes -17.457
39
root 0.981883 17.2236 -19.638 -0.0800073 4.38364 5.03309
lowerback 5.21072 -3.30945 -6.75853
upperback 1.14548 -4.73613 2.12904
thorax -0.998575 -2.36958 6.26117
lowerneck -13.4588 -1.75408 -10.3915
upperneck 22.6482 -1.0634 4.3714
head 9.45652 -0.909272 3.13383
rclavicle -2.18663e-015 -4.05521e-014
rhumerus -42.0672 -15.8671 -72.2785
rradius 26.1351
rwrist 7.10591
rhand -11.0544 13.0841
rfingers 7.12502
rthumb 14.9681 -16.355
lclavicle -2.18663e-015 -4.05521e-014
lhumerus -21.4539 -1.81139 83.4635
lradius 34.9241
lwrist -12.3214
lhand -12.0863 26.8175
lfingers 7.12502
lthumb 13.9738 56.3278
rfemur -26.9268 -0.597397 16.984
rtibia 20.6207
rfoot -2.17479 -6.37213
rtoes -3.38493
lfemur 13.5905 -4.33756 -27.8969
ltibia 25.9971
lfoot -7.67978 -4.90306
ltoes -17.9819
40
root 0.961639 17.2523 -19.4165 -0.298133 3.93854 4.26491
lowerback 5.09071 -3.20725 -6.04302
upperback 1.18756 -4.55112 2.31505
thorax -0.958546 -2.28065 6.03597
lowerneck -13.7012 -1.72265 -10.1328
upperneck 22.9355 -1.00941 4.17936
head 9.59652 -0.888454 3.03521
rclavicle -5.1684e-015 -1.74931e-014
rhumerus -41.9997 -16.7384 -71.7462
rradius 25.3246
rwrist 8.20617
rhand -11.2451 13.5599
rfingers 7.12502
rthumb 14.7844 -15.8928
lclavicle -5.1684e-015 -1.74931e-014
lhumerus -21.6842 -1.35727 83.4478
lradius 34.8015
lwrist -12.5202
lhand -12.4025 27.1812
lfingers 7.12502
lthumb 13.6691 56.7123
rfemur -26.3718 -0.0097008 17.8601
rtibia 20.8414
rfoot -1.18175 -5.27882
rtoes -2.49672
lfemur 13.3458 -3.97841 -26.911
ltibia 27.6461
lfoot -5.76066 -5.45731
ltoes -18.9981
41
root 0.946456 17.2679 -19.2062 -0.446726 3.42062 3.51922
lowerback 5.10101 -3.10215 -5.30101
upperback 1.10076 -4.37058 2.50976
thorax -1.12233 -2.18292 5.81918
lowerneck -13.6645 -1.70312 -10.1444
upperneck 23.1433 -0.981065 4.16023
head 9.66103 -0.884214 3.03759
rclavicle -1.65985e-014 1.19271e-014
rhumerus -42.1422 -17.0986 -71.4389
rradius 24.9166
rwrist 8.96868
rhand -11.3889 13.4448
rfingers 7.12502
rthumb 14.6458 -16.0179
lclavicle -1.65985e-014 1.19271e-014
lhumerus -22.1932 -0.989067 83.412
lradius 34.7468
lwrist -12.5193
lhand -12.496 27.1183
lfingers 7.12502
lthumb 13.579 56.6554
rfemur -25.9184 0.178587 18.9023
rtibia 21.2384
rfoot -0.207585 -4.1208
rtoes -0.804118
lfemur 12.8678 -3.60415 -26.0012
ltibia 29.4748
lfoot -3.66821 -5.77118
ltoes -19.8652
42
root 0.935394 17.2772 -19.0024 -0.597147 3.13551 2.89498
lowerback 5.31162 -3.06327 -4.65581
upperback 0.994428 -4.28972 2.70316
thorax -1.3944 -2.13221 5.67316
lowerneck -13.8991 -1.65134 -10.1923
upperneck 23.4998 -0.86233 4.11958
head 9.82353 -0.845479 3.05316
rclavicle 4.60187e-014 -2.94201e-014
rhumerus -42.156 -17.3921 -71.1177
rradius 24.5031
rwrist 9.66605
rhand -11.4018 13.7463
rfingers 7.12502
rthumb 14.6334 -15.7174
lclavicle 4.60187e-014 -2.94201e-014
lhumerus -22.5944 -0.615888 83.4355
lradius 34.665
lwrist -12.3635
lhand -12.3418 27.0708
lfingers 7.12502
lthumb 13.7276 56.598
rfemur -25.4237 0.106379 19.8463
rtibia 21.7982
rfoot 0.0824495 -3.881
rtoes 0.458083
lfemur 12.282 -3.33295 -25.1771
ltibia 31.4162
lfoot -1.2952 -6.23131
ltoes -20.2769
